<!-- by TradingView --><svg xmlns="http://www.w3.org/2000/svg" width="18" height="18" viewBox="0 0 18 18"><path fill="#F0F3FA" d="M0 0h18v18H0z"/><path d="M10.17 4.93a3.57 3.57 0 0 0-5 .19l-.1.1a3.9 3.9 0 0 0-.18 5.15c.1.12.26.12.37.01a.3.3 0 0 0 0-.4 3.33 3.33 0 0 1 .18-4.37l.1-.1a3.06 3.06 0 0 1 4.25-.19c.11.1.28.1.38 0 .1-.11.1-.3 0-.39zm-3.58.48c-.13.07-.17.24-.08.37.08.13.24.16.37.1a1.9 1.9 0 0 1 2.23.38l1.84 1.92c.1.1.27.1.38 0 .1-.11.1-.29 0-.4l-1.84-1.9a2.4 2.4 0 0 0-2.9-.47zm4.55.51a.26.26 0 0 0-.38 0c-.1.11-.1.28 0 .4l2.31 2.4c.1.1.27.1.38 0 .1-.11.1-.29 0-.4l-2.31-2.4zm-5.92.91a2.81 2.81 0 0 0 .6 3.03l2.81 2.8c.1.1.28.1.38-.01.1-.11.1-.29-.01-.4L6.2 9.48a2.25 2.25 0 0 1-.51-2.37c.05-.14 0-.31-.12-.38a.24.24 0 0 0-.35.11zm1.04 4.19a.26.26 0 0 0-.38 0c-.1.1-.1.28 0 .39l1.35 1.4c.1.11.27.11.38 0 .1-.1.1-.28 0-.39l-1.35-1.4zM8.3 13.1a.26.26 0 0 0-.38 0c-.1.1-.1.28 0 .39l.42.43c.1.1.27.1.37 0 .1-.1.1-.28 0-.4l-.41-.42zm.4-6.26a1.4 1.4 0 0 0-2 .03c-.58.59-.57 1.55 0 2.13l1.51 1.52c.1.1.27.1.38 0 .1-.12.1-.29-.01-.4l-1.5-1.51a.97.97 0 0 1-.01-1.35.89.89 0 0 1 1.27-.02l.33.32c.1.1.27.1.38 0 .1-.12.1-.3-.02-.4l-.33-.32zm-1.06.79a.26.26 0 0 0-.37 0c-.11.1-.11.28 0 .39l2.64 2.8a1 1 0 0 0 1.45.02c.39-.41.4-1.07.01-1.49L9.9 7.75a.26.26 0 0 0-.38 0c-.1.1-.1.27 0 .38l1.47 1.6c.18.2.18.52 0 .72-.2.2-.51.2-.7 0L7.64 7.62zm4.79 1.24a.26.26 0 0 0-.38 0c-.1.11-.1.28 0 .4l1.5 1.54c.1.11.27.11.37 0 .1-.1.1-.28 0-.39l-1.5-1.55zm-.23 1.41a.26.26 0 0 0-.38 0c-.1.1-.1.28 0 .4l1.08 1.12c.1.1.28.1.38 0 .1-.11.1-.29 0-.4l-1.08-1.12zm-2.89.65a.26.26 0 0 0-.37 0c-.1.11-.1.28 0 .4l1.82 1.89c.1.1.27.1.38 0 .1-.11.1-.29 0-.4L9.3 10.94zm2.12.48a.26.26 0 0 0-.38 0c-.1.1-.1.28 0 .39l1.54 1.6c.1.1.28.1.38 0 .1-.1.1-.28 0-.4l-1.54-1.6z" fill="url(#ab45dplka)"/><defs><linearGradient id="ab45dplka" x1="6.6" y1="4" x2="13.36" y2="13.76" gradientUnits="userSpaceOnUse"><stop stop-color="#6533D3"/><stop offset="1" stop-color="#EF3CE8"/></linearGradient></defs></svg>