<!-- by TradingView --><svg xmlns="http://www.w3.org/2000/svg" width="18" height="18" viewBox="0 0 18 18"><path fill="#F0F3FA" d="M0 0h18v18H0z"/><path fill-rule="evenodd" d="M7.86 4.3c-.2.4-.76.5-1.26.24-.49-.26-.72-.78-.52-1.16.2-.4.77-.5 1.26-.24s.72.78.52 1.17zM6.6 5.39A5.2 5.2 0 0 0 5.4 8.29a6.55 6.55 0 0 1 2.39-2.97c.57.04 3.6.97 3.57 4.18-.02 2.57-2.71 4.05-4.06 4.46 1.46-.02 5.4-1.5 5.32-4.93-.05-2.1-.84-3.41-1.68-4.13l-.17-.14a3.46 3.46 0 0 0-.08-.05h.01l-.01-.01c.23-.06.58-.18.95-.3l.37-.12c-1.17.03-2.28.17-3.2.36-.57.12-1.06.25-1.45.38-.39.14-.64.27-.75.36zm-.15-.26a5.05 5.05 0 0 0-2 6.42c.6-1.27 2.32-3.62 5.06-4.27-1.16.61-3.66 2.47-4.58 5.12A4.98 4.98 0 0 0 14 9.46c0-2.04-1.2-3.8-2.92-4.59.54-.14 1.31-.4 1.88-.59l-.04-.3c-1.52-.04-3 .13-4.17.36a12.05 12.05 0 0 0-1.8.51c-.22.1-.39.18-.5.27z" fill="#0072BC"/></svg>