<!-- by TradingView --><svg xmlns="http://www.w3.org/2000/svg" width="18" height="18" viewBox="0 0 18 18"><path fill="#F0F3FA" d="M0 0h18v18H0z"/><path d="M3.5 4.53c1.28.94 4.07 3.35 4.95 5.5 1.1 2.67 0 3.61-.87 3.95 1.02.12 2.9-.32 2.28-3.02.7.29 2.5.75 4.01.37-1.3-.12-3.99-.78-4.23-2.42C9.34 6.86 13.14 4.34 14 4c-1.7.53-5.19 2.18-5.48 4.56C7.2 6.7 4.62 5.1 3.5 4.53zm4.77 3.09c.23 0 .42-.38.42-.84 0-.46-.19-.84-.42-.84-.23 0-.42.38-.42.84 0 .46.19.84.42.84z" fill="#DF0136"/><path d="M8.25 10.42c-.52-1.76-3.04-4.1-4.23-5.06 1.86 2.04 5.5 5.55 3.43 8.36.49-.37 1.33-1.54.8-3.3z" fill="#9C9D9D"/><path d="M10.05 8.68c0-1.49 1.82-2.94 2.72-3.48-.73.65-2.21 2.21-2.21 3.32 0 1.11 1.35 1.97 2.03 2.26-.85-.09-2.54-.62-2.54-2.1z" fill="#9BA1A0"/></svg>