<!-- by TradingView --><svg width="18" height="18" viewBox="0 0 18 18" xmlns="http://www.w3.org/2000/svg"><path fill="#F0F3FA" d="M0 0h18v18H0z"/><path d="M9 13.8a4.8 4.8 0 1 0 0-9.6 4.8 4.8 0 0 0 0 9.6Z" fill="#fff"/><path d="M9 13.67A4.58 4.58 0 0 1 4.33 9 4.58 4.58 0 0 1 9 4.33 4.58 4.58 0 0 1 13.67 9 4.58 4.58 0 0 1 9 13.67Zm6-4.28c0-.1-.07-.12-.16-.15-.16-.05-.4-.08-.47-.2 0-.18 0-.35-.02-.52.05-.14.29-.18.45-.25.1-.04.17-.08.14-.19l-.1-.54c-.03-.11-.1-.12-.21-.12-.18 0-.4.05-.51-.05a5.4 5.4 0 0 0-.18-.47c0-.15.22-.27.35-.39.08-.07.14-.12.08-.22l-.28-.48c-.05-.1-.12-.08-.23-.05-.16.06-.37.18-.5.1l-.3-.38c-.06-.14.1-.33.2-.48.06-.1.1-.16.01-.24l-.41-.37c-.09-.08-.15-.04-.23.03-.15.1-.3.28-.45.25l-.41-.27c-.1-.12 0-.35.05-.52.02-.1.03-.18-.07-.23l-.5-.23c-.11-.04-.15.01-.22.1-.1.14-.2.37-.35.38l-.47-.13c-.13-.08-.1-.33-.11-.51-.01-.11-.02-.18-.13-.2L9.4 3h-.02c-.1 0-.12.07-.15.16-.05.17-.08.41-.22.47-.16 0-.32 0-.48.02-.15-.03-.2-.28-.27-.45-.04-.1-.07-.17-.18-.15l-.55.12c-.11.02-.12.1-.12.2 0 .18.06.42-.05.52-.16.05-.32.1-.47.17-.15 0-.27-.21-.39-.35-.07-.08-.12-.14-.22-.08l-.48.28c-.1.05-.08.12-.05.23.06.16.18.37.1.5l-.38.31c-.15.05-.33-.12-.48-.21-.1-.06-.16-.1-.23-.01l-.38.41c-.08.09-.04.15.03.23.1.14.27.3.25.44-.1.14-.2.28-.28.43-.12.08-.34-.02-.51-.06-.1-.02-.18-.04-.23.07l-.23.5c-.04.11.01.15.1.22.14.1.35.2.38.33l-.14.5c-.1.12-.33.09-.5.1-.11.01-.18.02-.2.13L3 8.6c-.01.11.06.14.16.17.16.05.4.08.46.2 0 .18 0 .35.02.53-.05.13-.28.18-.44.24-.1.04-.17.08-.14.19l.1.54c.03.11.1.12.21.12.17 0 .39-.05.5.04.05.17.12.34.19.5-.02.14-.22.26-.35.37-.08.07-.14.12-.08.22l.28.48c.05.1.12.08.22.05.16-.05.36-.17.49-.12.1.15.22.3.33.43.03.14-.13.3-.21.45-.06.1-.1.16-.01.23l.41.38c.09.08.15.04.23-.03.14-.1.29-.26.42-.26.15.11.3.21.46.3.06.13-.03.34-.07.5-.02.1-.04.18.07.23l.5.23c.1.04.15-.01.22-.1.1-.13.19-.34.32-.38.17.06.35.11.53.15.1.1.07.33.08.5.01.1.02.17.13.19l.56.06c.11.01.14-.06.17-.16.05-.16.08-.38.19-.46.18 0 .37 0 .55-.02.12.06.17.29.23.44.04.1.08.17.19.14l.54-.1c.11-.03.12-.1.12-.21 0-.17-.05-.39.03-.5.18-.05.35-.11.52-.19.13.02.25.22.36.35.07.08.12.14.22.08l.48-.28c.1-.05.08-.12.05-.23-.05-.15-.17-.35-.12-.48.15-.1.29-.22.42-.33.14-.03.32.12.46.21.1.06.16.1.23.01l.38-.41c.08-.09.04-.15-.03-.23-.1-.14-.26-.3-.26-.43l.3-.45c.12-.07.34.03.5.07.1.02.18.04.23-.07l.23-.5c.04-.11-.01-.15-.1-.22-.14-.1-.35-.2-.38-.33l.14-.5c.1-.12.33-.09.5-.1.11-.01.18-.02.2-.13L15 9.4v-.02Z" fill="#EEB600"/><path d="M9 13.33a4.33 4.33 0 1 0 0-8.66 4.33 4.33 0 0 0 0 8.66Z" fill="#193273"/><path d="M8.74 4.7v.16h-.87l.87-.15ZM9.22 4.7v.16h.9l-.9-.15ZM6.34 8.48s.01-.15.1-.15h.45c.04 0 .13.07.11.23v1.82c0 .1.1.06.1.06s.24-.27.59 0l.1.1c.09.14.18-.02.18-.02.11-.12.45-.35.85.01 0 0 .2.14.18.5v1.43s0 .2-.1.2h-.41s-.17 0-.16-.17v-1.3s.02-.2-.17-.19c-.12 0-.16.12-.16.17v1.32c0 .12-.1.18-.19.18H7.5c-.11 0-.16-.08-.16-.18v-1.23s.03-.26-.15-.26c-.12 0-.14 0-.18.2v1.3a.3.3 0 0 1-.03.1c-.06.1-.38.06-.47-.04-.03-.03-.1-.04-.17-.15V8.48ZM11.57 8.33h-.46c-.11 0-.11.11-.11.11v1.95s.06.13-.07.08c-.16-.09-.33-.14-.53-.14-.59 0-1.07.5-1.07 1.12 0 .61.48 1.22 1.07 1.22.2 0 .54-.16.54-.16l.17.14c.09.07.32-.04.55-.28V8.44s.02-.1-.09-.1Z" fill="#EEB600"/><path d="M10.6 10.87a.59.59 0 1 0 0 1.17.59.59 0 0 0 0-1.17Z" fill="#193273"/><path d="M10.84 8.5v.16h-.24l.07-.16h.17Z" fill="#EEB600"/><path d="m9 6.09 1.79.95s.1.92-.1 1.57c-.22.73-.9 1.59-1.69 1.68v-4.2ZM8.13 7.89h-.19v-.36h.2v.36Zm.04-.56h-.74v.2h.24v.37s-.23-.02-.2.15c.03.1.05.36.25.41.1.02.15-.02.18-.09v-.3h.19v.6h.24V7.52h.1v1.14h.24V7.53h.11v-.2h-.61Z" fill="#EEB600"/><path d="M10.16 7.83c-.04.12-.18.04-.41.04-.12 0-.13.15.03.15.24 0 .45.06.43.31-.01.17-.06.22-.17.3-.11.06-.4.05-.57-.04-.12-.07-.19-.2-.19-.2l.12-.13s.24.3.42.2c.14-.1.1-.24-.1-.25-.37-.02-.45-.1-.38-.4.05-.18.48-.12.48-.12v-.17h-.49v-.19h1.34v.2h-.1v1.14h-.24V7.52h-.17v.3Z" fill="#193273"/><path d="M10.53 7.16s-.37.4-.75-.03V7.1s.03-.07.08-.07.22.24.5.09l.01-.01h.01l.03-.02.12.08Z" fill="#193273"/><path d="M7.33 7v-.58l-.17-.11v-.52h1.57V4.71h.5v.93l.4.17-.01.63-.63-.35L7.33 7Z" fill="#EEB600"/><path d="M9 6.1v-.55l.63.27h1.32v.59l-.22.04v.59L9 6.09Z" fill="#193273"/><path d="m10.75 7.08-1.77-.97v-.6l.65.29h1.34v.63l-.22.05v.6ZM10.7 7v-.56l.22-.04v-.54h-1.3l-.59-.26v.49l1.67.91Z" fill="#193273"/></svg>