<!-- by TradingView --><svg xmlns="http://www.w3.org/2000/svg" width="18" height="18" viewBox="0 0 18 18"><path fill="#FDB002" d="M0 0h18v18H0z"/><path d="M9.04 4c1.57.01 2.7.58 3.05.87l-.25 2.06c-2.65-1.59-4.27-.83-4.26-.18 0 .54.25.67 2.6 1.5 1.88.66 2.33 1.96 2.32 2.53a.43.43 0 0 0-.52-.14c-.26.11-.26.42-.23.56a1.03 1.03 0 0 0-1.14.38c-.36.49-.1 1.08.07 1.32a.52.52 0 0 0-.37.32c-.1.3.16.5.3.56-2.6.57-4.41-.1-5-.5l.3-2.4c1.72 1.57 4.08 1.42 4.19.37.1-1.06-1.72-1.5-2.33-1.72-.6-.23-2.37-.9-2.27-2.68C5.61 5.08 7.07 4 9.04 4z" fill="#fff"/></svg>