<!-- by TradingView --><svg width="18" height="18" viewBox="0 0 18 18" xmlns="http://www.w3.org/2000/svg"><path fill="#F0F3FA" d="M0 0h18v18H0z"/><path d="M13.7 4 7 13H5.7l-.1-.23a.1.1 0 0 1-.06.03.08.08 0 0 1-.08-.08c0-.04.03-.08.08-.08l-.06-.14c.05-.01.09-.05.09-.1 0-.07-.06-.12-.12-.12-.03 0-.05 0-.06.02l-.05-.12a.24.24 0 0 1-.11.03c-.13 0-.24-.1-.24-.23 0-.1.07-.18.16-.21l-.06-.14a.16.16 0 0 1-.06.01c-.07 0-.13-.05-.13-.12 0-.05.04-.1.1-.11l-.05-.1a.24.24 0 0 0 .12-.2.24.24 0 0 0-.32-.23l-.07-.15c-.06 0-.1-.04-.1-.08 0-.03.02-.05.04-.07l-.07-.17c.06-.03.1-.09.1-.16 0-.1-.09-.18-.2-.18a.3.3 0 0 0-.05 0l-.13-.29c.1-.03.18-.12.18-.23 0-.13-.12-.24-.27-.24a.3.3 0 0 0-.12.02L4 9.17l-.05.01c-.02 0-.05-.02-.05-.05 0-.03.03-.05.05-.05h.01l-.07-.15a.12.12 0 0 1-.06.01.1.1 0 0 1-.1-.1.1.1 0 0 1 .07-.1l-.06-.15a.24.24 0 0 0 .13-.2c0-.14-.12-.24-.27-.24a.3.3 0 0 0-.05 0l-.04-.09a.13.13 0 0 1-.07.02c-.07 0-.13-.05-.13-.11s.04-.11.1-.12l-.05-.25h1.56l1.44 3.58L13.7 4Zm-9.1 7.52c-.04 0-.07-.02-.07-.05 0-.04.03-.06.06-.06.04 0 .06.03.06.06s-.02.05-.06.05ZM3.82 9.8c-.05 0-.09-.04-.09-.08 0-.05.04-.08.1-.08.04 0 .08.03.08.08 0 .04-.04.08-.09.08Zm.45 1.25c-.03 0-.06-.03-.06-.06s.03-.05.06-.05.06.02.06.05c0 .04-.03.06-.06.06Zm.41-1.73c0-.05-.04-.09-.1-.09-.05 0-.09.04-.09.1 0 .04.04.08.1.08.05 0 .09-.04.09-.09Zm.57 2.1c0-.05-.03-.08-.08-.08-.04 0-.08.03-.08.07 0 .05.04.08.08.08.05 0 .08-.03.08-.08ZM5 10.22c0-.04-.04-.07-.09-.07-.04 0-.08.03-.08.07 0 .04.04.08.08.08.05 0 .09-.04.09-.08Zm-.77-1.4c0-.05-.03-.08-.08-.08-.04 0-.08.03-.08.07 0 .05.04.08.08.08.05 0 .08-.03.08-.08ZM14 11.11c0 .75-.65 1.38-1.44 1.38H8.38l.7-.9h3.48c.25 0 .45-.25.45-.48 0-.24-.2-.42-.45-.42H9.72l.7-.9h1.98c.25 0 .45-.18.45-.42S12.65 9 12.4 9h-1.34l.7-1h.64c.8 0 1.45.56 1.45 1.32 0 .3-.1.58-.28.82.26.24.43.59.43.98Zm-9.08.72c-.03 0-.06-.03-.06-.06 0-.02.03-.05.06-.05s.06.03.06.05c0 .04-.03.06-.06.06Zm.2.66c-.04 0-.07-.03-.07-.07 0-.03.03-.06.07-.06.04 0 .07.03.07.06 0 .04-.03.07-.07.07Zm-.7-1.79c-.04 0-.06-.02-.06-.05 0-.03.02-.05.05-.05.03 0 .06.02.06.05 0 .03-.03.05-.06.05ZM3.07 8.07C3.04 8.07 3 8.04 3 8c0-.04.04-.08.08-.08.05 0 .09.04.09.08s-.04.07-.09.07Zm.92 2.1c-.05 0-.1-.04-.1-.09 0-.05.05-.09.1-.09s.1.04.1.1c0 .04-.05.08-.1.08Zm-.58-1.73c-.06 0-.11-.05-.11-.1 0-.06.05-.11.1-.11.07 0 .12.05.12.1 0 .06-.05.11-.11.11Zm0 .4a.08.08 0 0 1-.08-.08c0-.04.03-.08.08-.08.04 0 .07.04.07.08s-.03.07-.07.07Zm1.26 2.23c-.05 0-.08-.04-.08-.08s.03-.08.08-.08.08.04.08.08-.03.08-.08.08Zm-.53-1.35c-.06 0-.11-.05-.11-.1 0-.06.05-.11.11-.11.07 0 .12.05.12.1 0 .06-.05.11-.12.11Zm.2.72c-.08 0-.14-.06-.14-.13s.06-.13.14-.13c.08 0 .14.06.14.13s-.06.13-.14.13Zm.39 1.8c-.05 0-.09-.04-.09-.08 0-.05.04-.08.09-.08.05 0 .08.03.08.08 0 .04-.03.08-.08.08Zm-1.1-2.86c-.04 0-.06-.02-.06-.06 0-.03.02-.05.06-.05.03 0 .05.02.05.05 0 .04-.02.06-.05.06Zm2.17 2.84c-.03 0-.05.02-.05.04 0 .03.02.05.05.05.02 0 .04-.02.04-.05a.05.05 0 0 0-.04-.04Zm-.2-.47c0-.04-.04-.08-.08-.08-.05 0-.08.04-.08.08s.03.07.08.07c.04 0 .08-.03.08-.07ZM4.17 8.27c0-.06-.05-.1-.11-.1s-.11.04-.11.1c0 .06.05.1.1.1.07 0 .12-.04.12-.1Zm1.12 2.58c-.03 0-.05.02-.05.05 0 .03.02.05.05.05.02 0 .05-.02.05-.05a.05.05 0 0 0-.05-.05ZM4.85 9.7a.04.04 0 0 0-.04.05c0 .02.01.04.04.04s.05-.02.05-.04c0-.03-.02-.05-.05-.05Z" fill="#213468"/></svg>